# xmcd
#
# Track frame offsets:
# 150
# 46237
# 81205
# 102717
#
# Disc length: 2096 seconds
#
# Revision: 0
# Processed by: cddbd v1.4PL0 Copyright (c) Steve Scherf et al.
# Submitted via: Audion 3.0.2 (http://www.panic.com/audion/)
#
DISCID=2d082e04
DTITLE=Carter Webster and Bigard - Benny, Ben and Barney
DYEAR=1900
DGENRE=
TTITLE0=Opening blues
TTITLE1=Lula
TTITLE2=When lights are low
TTITLE3=You can't tell the difference
EXTD=
EXTT0=
EXTT1=
EXTT2=
EXTT3=
PLAYORDER=
